<svg width="42" height="55" viewBox="0 0 42 55" fill="none" xmlns="http://www.w3.org/2000/svg">
  <path
    d="M31.9367 18.7856C31.8022 21.8179 30.3567 24.514 28.1514 26.3159C26.2621 25.0989 24.0164 24.3795 21.6161 24.3526C21.5556 24.3526 21.4951 24.3526 21.4346 24.3526C19.0545 24.3526 16.8156 25.025 14.9195 26.1881C14.2875 26.5714 13.7026 27.0084 13.1513 27.4992C10.993 29.402 9.50712 32.0443 9.07009 35.0228C8.98268 35.6145 8.93562 36.2263 8.93562 36.8516V54.9916H0.53125V36.8516C0.53125 34.4311 0.948107 32.1048 1.70786 29.9331C2.01714 29.0658 2.37349 28.2119 2.79707 27.3984C4.31658 24.4131 6.52188 21.8447 9.22473 19.9017C9.88363 19.4243 10.5694 18.9805 11.2821 18.5839C14.2875 16.903 17.7501 15.9482 21.4346 15.9482C21.4951 15.9482 21.5556 15.9482 21.6161 15.9482C25.3813 15.9751 28.9044 17.0106 31.9434 18.7856H31.9367Z"
    fill="#53B0B8"/>
  <path
    d="M42.3311 36.8452V54.9852H33.9268V37.7932C36.912 35.9039 39.44 33.3355 41.289 30.3167C41.9681 32.374 42.3311 34.5659 42.3311 36.8384V36.8452Z"
    fill="#53B0B8"/>
  <path
    d="M9.11726 0.168213V17.3602C6.13203 19.2495 3.60399 21.8179 1.75503 24.8367C1.07596 22.7793 0.712891 20.5875 0.712891 18.3149V0.168213H9.11726Z"
    fill="white"/>
  <path
    d="M42.5059 0.168213V18.3082C42.5059 21.7103 41.6924 24.9174 40.2401 27.7614C38.7206 30.7467 36.5153 33.315 33.8124 35.2581C30.3767 37.7458 26.1611 39.2116 21.6026 39.2116C17.7769 39.2116 14.1866 38.1761 11.0938 36.3742C11.2282 33.3419 12.6738 30.6458 14.8791 28.8439C16.8154 30.0945 19.1283 30.8139 21.5958 30.8139C24.7693 30.8139 27.6672 29.6239 29.8725 27.6673C32.0307 25.7578 33.5166 23.1222 33.9536 20.1437C34.041 19.5521 34.0881 18.9402 34.0881 18.3149V0.168213H42.4925H42.5059Z"
    fill="white"/>
</svg>
